<mxfile host="app.diagrams.net" modified="2021-03-23T17:36:59.951Z" agent="5.0 (Windows NT 10.0; Win64; x64) AppleWebKit/537.36 (KHTML, like Gecko) Chrome/89.0.4389.90 Safari/537.36" etag="WOXWzYzDZ-CF9yIUYzwO" version="14.5.0" type="github">
  <diagram id="Zn5WJBOPdBaQIErQQMCe" name="Page-1">
    <mxGraphModel dx="2272" dy="2156" grid="1" gridSize="10" guides="1" tooltips="1" connect="1" arrows="1" fold="1" page="1" pageScale="1" pageWidth="827" pageHeight="1169" math="0" shadow="0">
      <root>
        <mxCell id="0" />
        <mxCell id="1" parent="0" />
        <mxCell id="elaPlwufUbfxa7BBgDb5-1" value="" style="rounded=0;whiteSpace=wrap;html=1;" vertex="1" parent="1">
          <mxGeometry x="20" y="10" width="3060" height="3440" as="geometry" />
        </mxCell>
        <mxCell id="elaPlwufUbfxa7BBgDb5-2" value="" style="rounded=0;whiteSpace=wrap;html=1;" vertex="1" parent="1">
          <mxGeometry x="20" y="10" width="3060" height="30" as="geometry" />
        </mxCell>
        <mxCell id="elaPlwufUbfxa7BBgDb5-3" value="STORY" style="text;strokeColor=none;fillColor=none;html=1;fontSize=24;fontStyle=1;verticalAlign=middle;align=center;" vertex="1" parent="1">
          <mxGeometry x="310" y="5" width="190" height="35" as="geometry" />
        </mxCell>
        <mxCell id="elaPlwufUbfxa7BBgDb5-4" value="" style="endArrow=none;dashed=1;html=1;" edge="1" parent="1" source="elaPlwufUbfxa7BBgDb5-1">
          <mxGeometry width="50" height="50" relative="1" as="geometry">
            <mxPoint x="390" y="50" as="sourcePoint" />
            <mxPoint x="440" as="targetPoint" />
          </mxGeometry>
        </mxCell>
        <mxCell id="elaPlwufUbfxa7BBgDb5-8" value="" style="endArrow=none;html=1;entryX=1.003;entryY=0.013;entryDx=0;entryDy=0;entryPerimeter=0;" edge="1" parent="1" target="elaPlwufUbfxa7BBgDb5-1">
          <mxGeometry width="50" height="50" relative="1" as="geometry">
            <mxPoint x="20" y="80" as="sourcePoint" />
            <mxPoint x="802" y="80" as="targetPoint" />
          </mxGeometry>
        </mxCell>
        <mxCell id="elaPlwufUbfxa7BBgDb5-9" value="" style="endArrow=none;html=1;entryX=0.312;entryY=1.029;entryDx=0;entryDy=0;entryPerimeter=0;exitX=0.31;exitY=1;exitDx=0;exitDy=0;exitPerimeter=0;" edge="1" parent="1" source="elaPlwufUbfxa7BBgDb5-1" target="elaPlwufUbfxa7BBgDb5-2">
          <mxGeometry width="50" height="50" relative="1" as="geometry">
            <mxPoint x="164" y="80" as="sourcePoint" />
            <mxPoint x="158" y="43" as="targetPoint" />
          </mxGeometry>
        </mxCell>
        <mxCell id="elaPlwufUbfxa7BBgDb5-10" value="" style="endArrow=none;html=1;entryX=0.694;entryY=1.007;entryDx=0;entryDy=0;entryPerimeter=0;exitX=0.697;exitY=1.001;exitDx=0;exitDy=0;exitPerimeter=0;" edge="1" parent="1" source="elaPlwufUbfxa7BBgDb5-1" target="elaPlwufUbfxa7BBgDb5-2">
          <mxGeometry width="50" height="50" relative="1" as="geometry">
            <mxPoint x="561" y="1250" as="sourcePoint" />
            <mxPoint x="543" y="50" as="targetPoint" />
          </mxGeometry>
        </mxCell>
        <mxCell id="elaPlwufUbfxa7BBgDb5-11" value="二楼走廊" style="text;html=1;strokeColor=none;fillColor=none;align=center;verticalAlign=middle;whiteSpace=wrap;rounded=0;" vertex="1" parent="1">
          <mxGeometry x="345" y="40" width="120" height="40" as="geometry" />
        </mxCell>
        <mxCell id="elaPlwufUbfxa7BBgDb5-23" value="" style="edgeStyle=orthogonalEdgeStyle;rounded=0;orthogonalLoop=1;jettySize=auto;html=1;entryX=0.5;entryY=0;entryDx=0;entryDy=0;" edge="1" parent="1" source="elaPlwufUbfxa7BBgDb5-13" target="elaPlwufUbfxa7BBgDb5-14">
          <mxGeometry relative="1" as="geometry" />
        </mxCell>
        <mxCell id="elaPlwufUbfxa7BBgDb5-13" value="Actor" style="shape=umlActor;verticalLabelPosition=bottom;verticalAlign=top;html=1;outlineConnect=0;" vertex="1" parent="1">
          <mxGeometry x="132.5" y="120" width="15" height="30" as="geometry" />
        </mxCell>
        <mxCell id="elaPlwufUbfxa7BBgDb5-14" value="医生门前" style="shape=parallelogram;perimeter=parallelogramPerimeter;whiteSpace=wrap;html=1;fixedSize=1;" vertex="1" parent="1">
          <mxGeometry x="100" y="300" width="80" height="20" as="geometry" />
        </mxCell>
        <mxCell id="elaPlwufUbfxa7BBgDb5-43" value="" style="edgeStyle=orthogonalEdgeStyle;rounded=0;orthogonalLoop=1;jettySize=auto;html=1;entryX=0;entryY=0.5;entryDx=0;entryDy=0;" edge="1" parent="1" source="elaPlwufUbfxa7BBgDb5-22" target="elaPlwufUbfxa7BBgDb5-307">
          <mxGeometry relative="1" as="geometry">
            <Array as="points">
              <mxPoint x="140" y="440" />
            </Array>
          </mxGeometry>
        </mxCell>
        <mxCell id="elaPlwufUbfxa7BBgDb5-22" value="EP05-01_0" style="rounded=1;whiteSpace=wrap;html=1;shadow=0;comic=0;labelBackgroundColor=none;strokeWidth=1;fontFamily=Verdana;fontSize=12;align=center;arcSize=50;" vertex="1" parent="1">
          <mxGeometry x="90" y="380" width="100" height="30" as="geometry" />
        </mxCell>
        <mxCell id="elaPlwufUbfxa7BBgDb5-25" value="" style="endArrow=classic;html=1;exitX=0.5;exitY=1;exitDx=0;exitDy=0;entryX=0.5;entryY=0;entryDx=0;entryDy=0;" edge="1" parent="1" source="elaPlwufUbfxa7BBgDb5-14" target="elaPlwufUbfxa7BBgDb5-22">
          <mxGeometry width="50" height="50" relative="1" as="geometry">
            <mxPoint x="53.29124999999999" y="201.18000000000006" as="sourcePoint" />
            <mxPoint x="210" y="200" as="targetPoint" />
          </mxGeometry>
        </mxCell>
        <mxCell id="elaPlwufUbfxa7BBgDb5-51" value="" style="edgeStyle=orthogonalEdgeStyle;rounded=0;orthogonalLoop=1;jettySize=auto;html=1;entryX=0.5;entryY=0;entryDx=0;entryDy=0;" edge="1" parent="1" source="elaPlwufUbfxa7BBgDb5-42" target="elaPlwufUbfxa7BBgDb5-58">
          <mxGeometry relative="1" as="geometry">
            <mxPoint x="1510" y="620" as="targetPoint" />
          </mxGeometry>
        </mxCell>
        <mxCell id="elaPlwufUbfxa7BBgDb5-42" value="EP05-02_0" style="whiteSpace=wrap;html=1;rounded=1;shadow=0;fontFamily=Verdana;strokeWidth=1;arcSize=50;comic=0;" vertex="1" parent="1">
          <mxGeometry x="1450" y="580" width="120" height="30" as="geometry" />
        </mxCell>
        <mxCell id="elaPlwufUbfxa7BBgDb5-46" value="典狱长房间" style="text;html=1;strokeColor=none;fillColor=none;align=center;verticalAlign=middle;whiteSpace=wrap;rounded=0;" vertex="1" parent="1">
          <mxGeometry x="1472" y="50" width="76" height="20" as="geometry" />
        </mxCell>
        <mxCell id="elaPlwufUbfxa7BBgDb5-47" value="艾琳的客房" style="text;html=1;strokeColor=none;fillColor=none;align=center;verticalAlign=middle;whiteSpace=wrap;rounded=0;" vertex="1" parent="1">
          <mxGeometry x="2530" y="50" width="100" height="20" as="geometry" />
        </mxCell>
        <mxCell id="elaPlwufUbfxa7BBgDb5-48" value="进入典狱长房间" style="shape=parallelogram;perimeter=parallelogramPerimeter;whiteSpace=wrap;html=1;fixedSize=1;" vertex="1" parent="1">
          <mxGeometry x="1450" y="460" width="120" height="40" as="geometry" />
        </mxCell>
        <mxCell id="elaPlwufUbfxa7BBgDb5-57" value="" style="endArrow=classic;html=1;exitX=0.5;exitY=1;exitDx=0;exitDy=0;entryX=0.5;entryY=0;entryDx=0;entryDy=0;" edge="1" parent="1" source="elaPlwufUbfxa7BBgDb5-48" target="elaPlwufUbfxa7BBgDb5-328">
          <mxGeometry width="50" height="50" relative="1" as="geometry">
            <mxPoint x="1930" y="780" as="sourcePoint" />
            <mxPoint x="1980" y="730" as="targetPoint" />
          </mxGeometry>
        </mxCell>
        <mxCell id="elaPlwufUbfxa7BBgDb5-84" style="edgeStyle=orthogonalEdgeStyle;rounded=0;orthogonalLoop=1;jettySize=auto;html=1;exitX=0;exitY=0.5;exitDx=0;exitDy=0;fontFamily=Verdana;" edge="1" parent="1" source="elaPlwufUbfxa7BBgDb5-58" target="elaPlwufUbfxa7BBgDb5-81">
          <mxGeometry relative="1" as="geometry" />
        </mxCell>
        <mxCell id="elaPlwufUbfxa7BBgDb5-85" style="edgeStyle=orthogonalEdgeStyle;rounded=0;orthogonalLoop=1;jettySize=auto;html=1;exitX=1;exitY=1;exitDx=0;exitDy=0;fontFamily=Verdana;" edge="1" parent="1" source="elaPlwufUbfxa7BBgDb5-58" target="elaPlwufUbfxa7BBgDb5-82">
          <mxGeometry relative="1" as="geometry" />
        </mxCell>
        <mxCell id="elaPlwufUbfxa7BBgDb5-86" style="edgeStyle=orthogonalEdgeStyle;rounded=0;orthogonalLoop=1;jettySize=auto;html=1;exitX=1;exitY=0.5;exitDx=0;exitDy=0;fontFamily=Verdana;" edge="1" parent="1" source="elaPlwufUbfxa7BBgDb5-58" target="elaPlwufUbfxa7BBgDb5-83">
          <mxGeometry relative="1" as="geometry" />
        </mxCell>
        <mxCell id="elaPlwufUbfxa7BBgDb5-120" value="" style="edgeStyle=orthogonalEdgeStyle;rounded=0;orthogonalLoop=1;jettySize=auto;html=1;fontFamily=Verdana;entryX=0.5;entryY=0;entryDx=0;entryDy=0;" edge="1" parent="1" source="elaPlwufUbfxa7BBgDb5-58" target="elaPlwufUbfxa7BBgDb5-121">
          <mxGeometry relative="1" as="geometry" />
        </mxCell>
        <mxCell id="elaPlwufUbfxa7BBgDb5-58" value="2d场景：典狱长房间" style="ellipse;whiteSpace=wrap;html=1;" vertex="1" parent="1">
          <mxGeometry x="1422.5" y="620" width="175" height="40" as="geometry" />
        </mxCell>
        <mxCell id="elaPlwufUbfxa7BBgDb5-91" style="edgeStyle=orthogonalEdgeStyle;rounded=0;orthogonalLoop=1;jettySize=auto;html=1;exitX=1;exitY=0.5;exitDx=0;exitDy=0;entryX=1;entryY=0.5;entryDx=0;entryDy=0;fontFamily=Verdana;" edge="1" parent="1" source="elaPlwufUbfxa7BBgDb5-81" target="elaPlwufUbfxa7BBgDb5-90">
          <mxGeometry relative="1" as="geometry">
            <Array as="points">
              <mxPoint x="1360" y="710" />
              <mxPoint x="1360" y="765" />
            </Array>
          </mxGeometry>
        </mxCell>
        <mxCell id="elaPlwufUbfxa7BBgDb5-92" style="edgeStyle=orthogonalEdgeStyle;rounded=0;orthogonalLoop=1;jettySize=auto;html=1;exitX=1;exitY=0.5;exitDx=0;exitDy=0;entryX=1;entryY=0.5;entryDx=0;entryDy=0;fontFamily=Verdana;" edge="1" parent="1" source="elaPlwufUbfxa7BBgDb5-81" target="elaPlwufUbfxa7BBgDb5-89">
          <mxGeometry relative="1" as="geometry">
            <Array as="points">
              <mxPoint x="1360" y="710" />
              <mxPoint x="1360" y="815" />
            </Array>
          </mxGeometry>
        </mxCell>
        <mxCell id="elaPlwufUbfxa7BBgDb5-93" style="edgeStyle=orthogonalEdgeStyle;rounded=0;orthogonalLoop=1;jettySize=auto;html=1;exitX=1;exitY=0.5;exitDx=0;exitDy=0;entryX=1;entryY=0.5;entryDx=0;entryDy=0;fontFamily=Verdana;" edge="1" parent="1" source="elaPlwufUbfxa7BBgDb5-81" target="elaPlwufUbfxa7BBgDb5-87">
          <mxGeometry relative="1" as="geometry">
            <Array as="points">
              <mxPoint x="1360" y="710" />
              <mxPoint x="1360" y="865" />
            </Array>
          </mxGeometry>
        </mxCell>
        <mxCell id="elaPlwufUbfxa7BBgDb5-81" value="调查衣架" style="shape=parallelogram;perimeter=parallelogramPerimeter;whiteSpace=wrap;html=1;fixedSize=1;rounded=0;shadow=0;comic=0;strokeWidth=1;fontFamily=Verdana;" vertex="1" parent="1">
          <mxGeometry x="1220" y="690" width="120" height="40" as="geometry" />
        </mxCell>
        <mxCell id="elaPlwufUbfxa7BBgDb5-103" style="edgeStyle=orthogonalEdgeStyle;rounded=0;orthogonalLoop=1;jettySize=auto;html=1;exitX=1;exitY=0.5;exitDx=0;exitDy=0;entryX=1;entryY=0.5;entryDx=0;entryDy=0;fontFamily=Verdana;" edge="1" parent="1" source="elaPlwufUbfxa7BBgDb5-82" target="elaPlwufUbfxa7BBgDb5-99">
          <mxGeometry relative="1" as="geometry">
            <Array as="points">
              <mxPoint x="1800" y="710" />
              <mxPoint x="1800" y="765" />
            </Array>
          </mxGeometry>
        </mxCell>
        <mxCell id="elaPlwufUbfxa7BBgDb5-104" style="edgeStyle=orthogonalEdgeStyle;rounded=0;orthogonalLoop=1;jettySize=auto;html=1;exitX=1;exitY=0.5;exitDx=0;exitDy=0;entryX=1;entryY=0.5;entryDx=0;entryDy=0;fontFamily=Verdana;" edge="1" parent="1" source="elaPlwufUbfxa7BBgDb5-82" target="elaPlwufUbfxa7BBgDb5-98">
          <mxGeometry relative="1" as="geometry">
            <Array as="points">
              <mxPoint x="1800" y="710" />
              <mxPoint x="1800" y="815" />
            </Array>
          </mxGeometry>
        </mxCell>
        <mxCell id="elaPlwufUbfxa7BBgDb5-105" style="edgeStyle=orthogonalEdgeStyle;rounded=0;orthogonalLoop=1;jettySize=auto;html=1;exitX=1;exitY=0.5;exitDx=0;exitDy=0;entryX=1;entryY=0.5;entryDx=0;entryDy=0;fontFamily=Verdana;" edge="1" parent="1" source="elaPlwufUbfxa7BBgDb5-82" target="elaPlwufUbfxa7BBgDb5-97">
          <mxGeometry relative="1" as="geometry">
            <Array as="points">
              <mxPoint x="1800" y="710" />
              <mxPoint x="1800" y="865" />
            </Array>
          </mxGeometry>
        </mxCell>
        <mxCell id="elaPlwufUbfxa7BBgDb5-82" value="调查电话" style="shape=parallelogram;perimeter=parallelogramPerimeter;whiteSpace=wrap;html=1;fixedSize=1;rounded=0;shadow=0;comic=0;strokeWidth=1;fontFamily=Verdana;" vertex="1" parent="1">
          <mxGeometry x="1660" y="690" width="120" height="40" as="geometry" />
        </mxCell>
        <mxCell id="elaPlwufUbfxa7BBgDb5-109" style="edgeStyle=orthogonalEdgeStyle;rounded=0;orthogonalLoop=1;jettySize=auto;html=1;exitX=0;exitY=0.5;exitDx=0;exitDy=0;entryX=0;entryY=0.5;entryDx=0;entryDy=0;fontFamily=Verdana;" edge="1" parent="1" source="elaPlwufUbfxa7BBgDb5-83" target="elaPlwufUbfxa7BBgDb5-102">
          <mxGeometry relative="1" as="geometry">
            <Array as="points">
              <mxPoint x="1860" y="710" />
              <mxPoint x="1860" y="765" />
            </Array>
          </mxGeometry>
        </mxCell>
        <mxCell id="elaPlwufUbfxa7BBgDb5-110" style="edgeStyle=orthogonalEdgeStyle;rounded=0;orthogonalLoop=1;jettySize=auto;html=1;exitX=0;exitY=0.5;exitDx=0;exitDy=0;entryX=0;entryY=0.5;entryDx=0;entryDy=0;fontFamily=Verdana;" edge="1" parent="1" source="elaPlwufUbfxa7BBgDb5-83" target="elaPlwufUbfxa7BBgDb5-101">
          <mxGeometry relative="1" as="geometry">
            <Array as="points">
              <mxPoint x="1860" y="710" />
              <mxPoint x="1860" y="815" />
            </Array>
          </mxGeometry>
        </mxCell>
        <mxCell id="elaPlwufUbfxa7BBgDb5-111" style="edgeStyle=orthogonalEdgeStyle;rounded=0;orthogonalLoop=1;jettySize=auto;html=1;exitX=0;exitY=0.5;exitDx=0;exitDy=0;entryX=0;entryY=0.5;entryDx=0;entryDy=0;fontFamily=Verdana;" edge="1" parent="1" source="elaPlwufUbfxa7BBgDb5-83" target="elaPlwufUbfxa7BBgDb5-100">
          <mxGeometry relative="1" as="geometry">
            <Array as="points">
              <mxPoint x="1860" y="710" />
              <mxPoint x="1860" y="865" />
            </Array>
          </mxGeometry>
        </mxCell>
        <mxCell id="elaPlwufUbfxa7BBgDb5-83" value="调查猎枪" style="shape=parallelogram;perimeter=parallelogramPerimeter;whiteSpace=wrap;html=1;fixedSize=1;rounded=0;shadow=0;comic=0;strokeWidth=1;fontFamily=Verdana;" vertex="1" parent="1">
          <mxGeometry x="1870" y="690" width="120" height="40" as="geometry" />
        </mxCell>
        <mxCell id="elaPlwufUbfxa7BBgDb5-96" style="edgeStyle=orthogonalEdgeStyle;rounded=0;orthogonalLoop=1;jettySize=auto;html=1;exitX=0;exitY=0.5;exitDx=0;exitDy=0;entryX=0;entryY=0;entryDx=0;entryDy=0;fontFamily=Verdana;" edge="1" parent="1" source="elaPlwufUbfxa7BBgDb5-87" target="elaPlwufUbfxa7BBgDb5-58">
          <mxGeometry relative="1" as="geometry">
            <Array as="points">
              <mxPoint x="1210" y="865" />
              <mxPoint x="1210" y="626" />
            </Array>
          </mxGeometry>
        </mxCell>
        <mxCell id="elaPlwufUbfxa7BBgDb5-87" value="EP05-02_coathanger3" style="rounded=1;whiteSpace=wrap;html=1;shadow=0;comic=0;labelBackgroundColor=none;strokeWidth=1;fontFamily=Verdana;fontSize=12;align=center;arcSize=50;" vertex="1" parent="1">
          <mxGeometry x="1230" y="850" width="100" height="30" as="geometry" />
        </mxCell>
        <mxCell id="elaPlwufUbfxa7BBgDb5-95" style="edgeStyle=orthogonalEdgeStyle;rounded=0;orthogonalLoop=1;jettySize=auto;html=1;exitX=0;exitY=0.5;exitDx=0;exitDy=0;entryX=0;entryY=0;entryDx=0;entryDy=0;fontFamily=Verdana;" edge="1" parent="1" source="elaPlwufUbfxa7BBgDb5-89" target="elaPlwufUbfxa7BBgDb5-58">
          <mxGeometry relative="1" as="geometry">
            <Array as="points">
              <mxPoint x="1210" y="815" />
              <mxPoint x="1210" y="626" />
            </Array>
          </mxGeometry>
        </mxCell>
        <mxCell id="elaPlwufUbfxa7BBgDb5-89" value="EP05-02_coathanger2" style="rounded=1;whiteSpace=wrap;html=1;shadow=0;comic=0;labelBackgroundColor=none;strokeWidth=1;fontFamily=Verdana;fontSize=12;align=center;arcSize=50;" vertex="1" parent="1">
          <mxGeometry x="1230" y="800" width="100" height="30" as="geometry" />
        </mxCell>
        <mxCell id="elaPlwufUbfxa7BBgDb5-94" style="edgeStyle=orthogonalEdgeStyle;rounded=0;orthogonalLoop=1;jettySize=auto;html=1;exitX=0;exitY=0.5;exitDx=0;exitDy=0;entryX=0;entryY=0;entryDx=0;entryDy=0;fontFamily=Verdana;" edge="1" parent="1" source="elaPlwufUbfxa7BBgDb5-90" target="elaPlwufUbfxa7BBgDb5-58">
          <mxGeometry relative="1" as="geometry">
            <Array as="points">
              <mxPoint x="1210" y="765" />
              <mxPoint x="1210" y="626" />
            </Array>
          </mxGeometry>
        </mxCell>
        <mxCell id="elaPlwufUbfxa7BBgDb5-90" value="EP05-02_coathanger1" style="rounded=1;whiteSpace=wrap;html=1;shadow=0;comic=0;labelBackgroundColor=none;strokeWidth=1;fontFamily=Verdana;fontSize=12;align=center;arcSize=50;" vertex="1" parent="1">
          <mxGeometry x="1230" y="750" width="100" height="30" as="geometry" />
        </mxCell>
        <mxCell id="elaPlwufUbfxa7BBgDb5-108" style="edgeStyle=orthogonalEdgeStyle;rounded=0;orthogonalLoop=1;jettySize=auto;html=1;exitX=0;exitY=0.5;exitDx=0;exitDy=0;entryX=0.764;entryY=0.9;entryDx=0;entryDy=0;entryPerimeter=0;fontFamily=Verdana;" edge="1" parent="1" source="elaPlwufUbfxa7BBgDb5-97" target="elaPlwufUbfxa7BBgDb5-58">
          <mxGeometry relative="1" as="geometry" />
        </mxCell>
        <mxCell id="elaPlwufUbfxa7BBgDb5-97" value="EP05-02_telephone3" style="rounded=1;whiteSpace=wrap;html=1;shadow=0;comic=0;labelBackgroundColor=none;strokeWidth=1;fontFamily=Verdana;fontSize=12;align=center;arcSize=50;" vertex="1" parent="1">
          <mxGeometry x="1670" y="850" width="100" height="30" as="geometry" />
        </mxCell>
        <mxCell id="elaPlwufUbfxa7BBgDb5-107" style="edgeStyle=orthogonalEdgeStyle;rounded=0;orthogonalLoop=1;jettySize=auto;html=1;exitX=0;exitY=0.5;exitDx=0;exitDy=0;entryX=0.767;entryY=0.9;entryDx=0;entryDy=0;entryPerimeter=0;fontFamily=Verdana;" edge="1" parent="1" source="elaPlwufUbfxa7BBgDb5-98" target="elaPlwufUbfxa7BBgDb5-58">
          <mxGeometry relative="1" as="geometry" />
        </mxCell>
        <mxCell id="elaPlwufUbfxa7BBgDb5-98" value="EP05-02_telephone2" style="rounded=1;whiteSpace=wrap;html=1;shadow=0;comic=0;labelBackgroundColor=none;strokeWidth=1;fontFamily=Verdana;fontSize=12;align=center;arcSize=50;" vertex="1" parent="1">
          <mxGeometry x="1670" y="800" width="100" height="30" as="geometry" />
        </mxCell>
        <mxCell id="elaPlwufUbfxa7BBgDb5-106" style="edgeStyle=orthogonalEdgeStyle;rounded=0;orthogonalLoop=1;jettySize=auto;html=1;exitX=0;exitY=0.5;exitDx=0;exitDy=0;entryX=0.764;entryY=0.9;entryDx=0;entryDy=0;entryPerimeter=0;fontFamily=Verdana;" edge="1" parent="1" source="elaPlwufUbfxa7BBgDb5-99" target="elaPlwufUbfxa7BBgDb5-58">
          <mxGeometry relative="1" as="geometry">
            <Array as="points">
              <mxPoint x="1556" y="765" />
            </Array>
          </mxGeometry>
        </mxCell>
        <mxCell id="elaPlwufUbfxa7BBgDb5-99" value="EP05-02_telephone1" style="rounded=1;whiteSpace=wrap;html=1;shadow=0;comic=0;labelBackgroundColor=none;strokeWidth=1;fontFamily=Verdana;fontSize=12;align=center;arcSize=50;" vertex="1" parent="1">
          <mxGeometry x="1670" y="750" width="100" height="30" as="geometry" />
        </mxCell>
        <mxCell id="elaPlwufUbfxa7BBgDb5-116" style="edgeStyle=orthogonalEdgeStyle;rounded=0;orthogonalLoop=1;jettySize=auto;html=1;exitX=1;exitY=0.5;exitDx=0;exitDy=0;entryX=1;entryY=0;entryDx=0;entryDy=0;fontFamily=Verdana;" edge="1" parent="1" source="elaPlwufUbfxa7BBgDb5-100" target="elaPlwufUbfxa7BBgDb5-58">
          <mxGeometry relative="1" as="geometry">
            <Array as="points">
              <mxPoint x="2000" y="865" />
              <mxPoint x="2000" y="626" />
            </Array>
          </mxGeometry>
        </mxCell>
        <mxCell id="elaPlwufUbfxa7BBgDb5-100" value="EP05-02_Shotgun3" style="rounded=1;whiteSpace=wrap;html=1;shadow=0;comic=0;labelBackgroundColor=none;strokeWidth=1;fontFamily=Verdana;fontSize=12;align=center;arcSize=50;" vertex="1" parent="1">
          <mxGeometry x="1880" y="850" width="100" height="30" as="geometry" />
        </mxCell>
        <mxCell id="elaPlwufUbfxa7BBgDb5-115" style="edgeStyle=orthogonalEdgeStyle;rounded=0;orthogonalLoop=1;jettySize=auto;html=1;exitX=1;exitY=0.5;exitDx=0;exitDy=0;fontFamily=Verdana;entryX=1;entryY=0;entryDx=0;entryDy=0;" edge="1" parent="1" source="elaPlwufUbfxa7BBgDb5-101" target="elaPlwufUbfxa7BBgDb5-58">
          <mxGeometry relative="1" as="geometry">
            <Array as="points">
              <mxPoint x="2000" y="815" />
              <mxPoint x="2000" y="626" />
            </Array>
          </mxGeometry>
        </mxCell>
        <mxCell id="elaPlwufUbfxa7BBgDb5-101" value="EP05-02_Shotgun2" style="rounded=1;whiteSpace=wrap;html=1;shadow=0;comic=0;labelBackgroundColor=none;strokeWidth=1;fontFamily=Verdana;fontSize=12;align=center;arcSize=50;" vertex="1" parent="1">
          <mxGeometry x="1880" y="800" width="100" height="30" as="geometry" />
        </mxCell>
        <mxCell id="elaPlwufUbfxa7BBgDb5-112" style="edgeStyle=orthogonalEdgeStyle;rounded=0;orthogonalLoop=1;jettySize=auto;html=1;exitX=1;exitY=0.5;exitDx=0;exitDy=0;entryX=1;entryY=0;entryDx=0;entryDy=0;fontFamily=Verdana;" edge="1" parent="1" source="elaPlwufUbfxa7BBgDb5-102" target="elaPlwufUbfxa7BBgDb5-58">
          <mxGeometry relative="1" as="geometry">
            <Array as="points">
              <mxPoint x="2000" y="765" />
              <mxPoint x="2000" y="626" />
            </Array>
          </mxGeometry>
        </mxCell>
        <mxCell id="elaPlwufUbfxa7BBgDb5-102" value="EP05-02_Shotgun1" style="rounded=1;whiteSpace=wrap;html=1;shadow=0;comic=0;labelBackgroundColor=none;strokeWidth=1;fontFamily=Verdana;fontSize=12;align=center;arcSize=50;" vertex="1" parent="1">
          <mxGeometry x="1880" y="750" width="100" height="30" as="geometry" />
        </mxCell>
        <mxCell id="elaPlwufUbfxa7BBgDb5-273" value="" style="edgeStyle=orthogonalEdgeStyle;rounded=0;orthogonalLoop=1;jettySize=auto;html=1;fontFamily=Verdana;" edge="1" parent="1" source="elaPlwufUbfxa7BBgDb5-119" target="elaPlwufUbfxa7BBgDb5-271">
          <mxGeometry relative="1" as="geometry" />
        </mxCell>
        <mxCell id="elaPlwufUbfxa7BBgDb5-119" value="2d场景：典狱长房间" style="ellipse;whiteSpace=wrap;html=1;" vertex="1" parent="1">
          <mxGeometry x="1422.5" y="980" width="175" height="40" as="geometry" />
        </mxCell>
        <mxCell id="elaPlwufUbfxa7BBgDb5-122" value="" style="edgeStyle=orthogonalEdgeStyle;rounded=0;orthogonalLoop=1;jettySize=auto;html=1;fontFamily=Verdana;" edge="1" parent="1" source="elaPlwufUbfxa7BBgDb5-121" target="elaPlwufUbfxa7BBgDb5-119">
          <mxGeometry relative="1" as="geometry" />
        </mxCell>
        <mxCell id="elaPlwufUbfxa7BBgDb5-121" value="进入人物对话" style="shape=parallelogram;perimeter=parallelogramPerimeter;whiteSpace=wrap;html=1;fixedSize=1;rounded=0;shadow=0;comic=0;strokeWidth=1;fontFamily=Verdana;" vertex="1" parent="1">
          <mxGeometry x="1450" y="890" width="120" height="40" as="geometry" />
        </mxCell>
        <mxCell id="elaPlwufUbfxa7BBgDb5-201" style="edgeStyle=orthogonalEdgeStyle;rounded=0;orthogonalLoop=1;jettySize=auto;html=1;exitX=0;exitY=0.5;exitDx=0;exitDy=0;fontFamily=Verdana;" edge="1" parent="1" target="elaPlwufUbfxa7BBgDb5-205">
          <mxGeometry relative="1" as="geometry">
            <mxPoint x="1423.2700000000002" y="999.21" as="sourcePoint" />
          </mxGeometry>
        </mxCell>
        <mxCell id="elaPlwufUbfxa7BBgDb5-202" style="edgeStyle=orthogonalEdgeStyle;rounded=0;orthogonalLoop=1;jettySize=auto;html=1;exitX=1;exitY=0.5;exitDx=0;exitDy=0;entryX=1;entryY=0.5;entryDx=0;entryDy=0;fontFamily=Verdana;" edge="1" parent="1" source="elaPlwufUbfxa7BBgDb5-205" target="elaPlwufUbfxa7BBgDb5-211">
          <mxGeometry relative="1" as="geometry">
            <Array as="points">
              <mxPoint x="1360.77" y="1069.21" />
              <mxPoint x="1360.77" y="1124.21" />
            </Array>
          </mxGeometry>
        </mxCell>
        <mxCell id="elaPlwufUbfxa7BBgDb5-203" style="edgeStyle=orthogonalEdgeStyle;rounded=0;orthogonalLoop=1;jettySize=auto;html=1;exitX=1;exitY=0.5;exitDx=0;exitDy=0;entryX=1;entryY=0.5;entryDx=0;entryDy=0;fontFamily=Verdana;" edge="1" parent="1" source="elaPlwufUbfxa7BBgDb5-205" target="elaPlwufUbfxa7BBgDb5-209">
          <mxGeometry relative="1" as="geometry">
            <Array as="points">
              <mxPoint x="1360.77" y="1069.21" />
              <mxPoint x="1360.77" y="1174.21" />
            </Array>
          </mxGeometry>
        </mxCell>
        <mxCell id="elaPlwufUbfxa7BBgDb5-204" style="edgeStyle=orthogonalEdgeStyle;rounded=0;orthogonalLoop=1;jettySize=auto;html=1;exitX=1;exitY=0.5;exitDx=0;exitDy=0;entryX=1;entryY=0.5;entryDx=0;entryDy=0;fontFamily=Verdana;" edge="1" parent="1" source="elaPlwufUbfxa7BBgDb5-205" target="elaPlwufUbfxa7BBgDb5-207">
          <mxGeometry relative="1" as="geometry">
            <Array as="points">
              <mxPoint x="1360.77" y="1069.21" />
              <mxPoint x="1360.77" y="1224.21" />
            </Array>
          </mxGeometry>
        </mxCell>
        <mxCell id="elaPlwufUbfxa7BBgDb5-205" value="薇拉" style="shape=parallelogram;perimeter=parallelogramPerimeter;whiteSpace=wrap;html=1;fixedSize=1;rounded=0;shadow=0;comic=0;strokeWidth=1;fontFamily=Verdana;" vertex="1" parent="1">
          <mxGeometry x="1220.77" y="1049.21" width="120" height="40" as="geometry" />
        </mxCell>
        <mxCell id="elaPlwufUbfxa7BBgDb5-206" style="edgeStyle=orthogonalEdgeStyle;rounded=0;orthogonalLoop=1;jettySize=auto;html=1;exitX=0;exitY=0.5;exitDx=0;exitDy=0;entryX=0;entryY=0;entryDx=0;entryDy=0;fontFamily=Verdana;" edge="1" parent="1" source="elaPlwufUbfxa7BBgDb5-207">
          <mxGeometry relative="1" as="geometry">
            <mxPoint x="1449.004495872426" y="985.0435999707399" as="targetPoint" />
            <Array as="points">
              <mxPoint x="1210.77" y="1224.21" />
              <mxPoint x="1210.77" y="985.21" />
            </Array>
          </mxGeometry>
        </mxCell>
        <mxCell id="elaPlwufUbfxa7BBgDb5-207" value="EP05-02_vera3" style="rounded=1;whiteSpace=wrap;html=1;shadow=0;comic=0;labelBackgroundColor=none;strokeWidth=1;fontFamily=Verdana;fontSize=12;align=center;arcSize=50;" vertex="1" parent="1">
          <mxGeometry x="1230.77" y="1209.21" width="100" height="30" as="geometry" />
        </mxCell>
        <mxCell id="elaPlwufUbfxa7BBgDb5-208" style="edgeStyle=orthogonalEdgeStyle;rounded=0;orthogonalLoop=1;jettySize=auto;html=1;exitX=0;exitY=0.5;exitDx=0;exitDy=0;entryX=0;entryY=0;entryDx=0;entryDy=0;fontFamily=Verdana;" edge="1" parent="1" source="elaPlwufUbfxa7BBgDb5-209">
          <mxGeometry relative="1" as="geometry">
            <mxPoint x="1449.004495872426" y="985.0435999707399" as="targetPoint" />
            <Array as="points">
              <mxPoint x="1210.77" y="1174.21" />
              <mxPoint x="1210.77" y="985.21" />
            </Array>
          </mxGeometry>
        </mxCell>
        <mxCell id="elaPlwufUbfxa7BBgDb5-209" value="EP05-02_vera2" style="rounded=1;whiteSpace=wrap;html=1;shadow=0;comic=0;labelBackgroundColor=none;strokeWidth=1;fontFamily=Verdana;fontSize=12;align=center;arcSize=50;" vertex="1" parent="1">
          <mxGeometry x="1230.77" y="1159.21" width="100" height="30" as="geometry" />
        </mxCell>
        <mxCell id="elaPlwufUbfxa7BBgDb5-210" style="edgeStyle=orthogonalEdgeStyle;rounded=0;orthogonalLoop=1;jettySize=auto;html=1;exitX=0;exitY=0.5;exitDx=0;exitDy=0;entryX=0;entryY=0;entryDx=0;entryDy=0;fontFamily=Verdana;" edge="1" parent="1" source="elaPlwufUbfxa7BBgDb5-211">
          <mxGeometry relative="1" as="geometry">
            <mxPoint x="1449.004495872426" y="985.0435999707399" as="targetPoint" />
            <Array as="points">
              <mxPoint x="1210.77" y="1124.21" />
              <mxPoint x="1210.77" y="985.21" />
            </Array>
          </mxGeometry>
        </mxCell>
        <mxCell id="elaPlwufUbfxa7BBgDb5-211" value="EP05-02_vera1" style="rounded=1;whiteSpace=wrap;html=1;shadow=0;comic=0;labelBackgroundColor=none;strokeWidth=1;fontFamily=Verdana;fontSize=12;align=center;arcSize=50;" vertex="1" parent="1">
          <mxGeometry x="1230.77" y="1109.21" width="100" height="30" as="geometry" />
        </mxCell>
        <mxCell id="elaPlwufUbfxa7BBgDb5-224" value="调查电话" style="shape=parallelogram;perimeter=parallelogramPerimeter;whiteSpace=wrap;html=1;fixedSize=1;rounded=0;shadow=0;comic=0;strokeWidth=1;fontFamily=Verdana;" vertex="1" parent="1">
          <mxGeometry x="1660" y="690" width="120" height="40" as="geometry" />
        </mxCell>
        <mxCell id="elaPlwufUbfxa7BBgDb5-225" value="EP05-02_telephone1" style="rounded=1;whiteSpace=wrap;html=1;shadow=0;comic=0;labelBackgroundColor=none;strokeWidth=1;fontFamily=Verdana;fontSize=12;align=center;arcSize=50;" vertex="1" parent="1">
          <mxGeometry x="1670" y="750" width="100" height="30" as="geometry" />
        </mxCell>
        <mxCell id="elaPlwufUbfxa7BBgDb5-226" value="EP05-02_telephone2" style="rounded=1;whiteSpace=wrap;html=1;shadow=0;comic=0;labelBackgroundColor=none;strokeWidth=1;fontFamily=Verdana;fontSize=12;align=center;arcSize=50;" vertex="1" parent="1">
          <mxGeometry x="1670" y="800" width="100" height="30" as="geometry" />
        </mxCell>
        <mxCell id="elaPlwufUbfxa7BBgDb5-237" style="edgeStyle=orthogonalEdgeStyle;rounded=0;orthogonalLoop=1;jettySize=auto;html=1;exitX=1;exitY=1;exitDx=0;exitDy=0;fontFamily=Verdana;" edge="1" parent="1">
          <mxGeometry relative="1" as="geometry">
            <mxPoint x="1565.6051869582773" y="1015.3810265150146" as="sourcePoint" />
            <mxPoint x="1713.86" y="1051.21" as="targetPoint" />
          </mxGeometry>
        </mxCell>
        <mxCell id="elaPlwufUbfxa7BBgDb5-238" style="edgeStyle=orthogonalEdgeStyle;rounded=0;orthogonalLoop=1;jettySize=auto;html=1;exitX=1;exitY=0.5;exitDx=0;exitDy=0;entryX=1;entryY=0.5;entryDx=0;entryDy=0;fontFamily=Verdana;" edge="1" parent="1">
          <mxGeometry relative="1" as="geometry">
            <mxPoint x="1763.86" y="1071.21" as="sourcePoint" />
            <mxPoint x="1763.86" y="1126.21" as="targetPoint" />
            <Array as="points">
              <mxPoint x="1793.86" y="1071.21" />
              <mxPoint x="1793.86" y="1126.21" />
            </Array>
          </mxGeometry>
        </mxCell>
        <mxCell id="elaPlwufUbfxa7BBgDb5-239" style="edgeStyle=orthogonalEdgeStyle;rounded=0;orthogonalLoop=1;jettySize=auto;html=1;exitX=1;exitY=0.5;exitDx=0;exitDy=0;entryX=1;entryY=0.5;entryDx=0;entryDy=0;fontFamily=Verdana;" edge="1" parent="1">
          <mxGeometry relative="1" as="geometry">
            <mxPoint x="1763.86" y="1071.21" as="sourcePoint" />
            <mxPoint x="1763.86" y="1176.21" as="targetPoint" />
            <Array as="points">
              <mxPoint x="1793.86" y="1071.21" />
              <mxPoint x="1793.86" y="1176.21" />
            </Array>
          </mxGeometry>
        </mxCell>
        <mxCell id="elaPlwufUbfxa7BBgDb5-240" style="edgeStyle=orthogonalEdgeStyle;rounded=0;orthogonalLoop=1;jettySize=auto;html=1;exitX=1;exitY=0.5;exitDx=0;exitDy=0;entryX=1;entryY=0.5;entryDx=0;entryDy=0;fontFamily=Verdana;" edge="1" parent="1" target="elaPlwufUbfxa7BBgDb5-242">
          <mxGeometry relative="1" as="geometry">
            <mxPoint x="1763.86" y="1071.21" as="sourcePoint" />
            <Array as="points">
              <mxPoint x="1793.86" y="1071.21" />
              <mxPoint x="1793.86" y="1226.21" />
            </Array>
          </mxGeometry>
        </mxCell>
        <mxCell id="elaPlwufUbfxa7BBgDb5-241" style="edgeStyle=orthogonalEdgeStyle;rounded=0;orthogonalLoop=1;jettySize=auto;html=1;exitX=0;exitY=0.5;exitDx=0;exitDy=0;entryX=0.764;entryY=0.9;entryDx=0;entryDy=0;entryPerimeter=0;fontFamily=Verdana;" edge="1" parent="1" source="elaPlwufUbfxa7BBgDb5-242">
          <mxGeometry relative="1" as="geometry">
            <mxPoint x="1550.0599999999997" y="1017.21" as="targetPoint" />
          </mxGeometry>
        </mxCell>
        <mxCell id="elaPlwufUbfxa7BBgDb5-242" value="EP05-02_law3" style="rounded=1;whiteSpace=wrap;html=1;shadow=0;comic=0;labelBackgroundColor=none;strokeWidth=1;fontFamily=Verdana;fontSize=12;align=center;arcSize=50;" vertex="1" parent="1">
          <mxGeometry x="1663.86" y="1211.21" width="100" height="30" as="geometry" />
        </mxCell>
        <mxCell id="elaPlwufUbfxa7BBgDb5-243" style="edgeStyle=orthogonalEdgeStyle;rounded=0;orthogonalLoop=1;jettySize=auto;html=1;exitX=0;exitY=0.5;exitDx=0;exitDy=0;entryX=0.767;entryY=0.9;entryDx=0;entryDy=0;entryPerimeter=0;fontFamily=Verdana;" edge="1" parent="1">
          <mxGeometry relative="1" as="geometry">
            <mxPoint x="1663.86" y="1176.21" as="sourcePoint" />
            <mxPoint x="1550.5849999999998" y="1017.21" as="targetPoint" />
          </mxGeometry>
        </mxCell>
        <mxCell id="elaPlwufUbfxa7BBgDb5-244" style="edgeStyle=orthogonalEdgeStyle;rounded=0;orthogonalLoop=1;jettySize=auto;html=1;exitX=0;exitY=0.5;exitDx=0;exitDy=0;entryX=0.764;entryY=0.9;entryDx=0;entryDy=0;entryPerimeter=0;fontFamily=Verdana;" edge="1" parent="1">
          <mxGeometry relative="1" as="geometry">
            <mxPoint x="1663.86" y="1126.21" as="sourcePoint" />
            <mxPoint x="1550.0599999999997" y="1017.21" as="targetPoint" />
            <Array as="points">
              <mxPoint x="1549.86" y="1126.21" />
            </Array>
          </mxGeometry>
        </mxCell>
        <mxCell id="elaPlwufUbfxa7BBgDb5-245" value="记者" style="shape=parallelogram;perimeter=parallelogramPerimeter;whiteSpace=wrap;html=1;fixedSize=1;rounded=0;shadow=0;comic=0;strokeWidth=1;fontFamily=Verdana;" vertex="1" parent="1">
          <mxGeometry x="1653.86" y="1051.21" width="120" height="40" as="geometry" />
        </mxCell>
        <mxCell id="elaPlwufUbfxa7BBgDb5-246" value="EP05-02_law1" style="rounded=1;whiteSpace=wrap;html=1;shadow=0;comic=0;labelBackgroundColor=none;strokeWidth=1;fontFamily=Verdana;fontSize=12;align=center;arcSize=50;" vertex="1" parent="1">
          <mxGeometry x="1663.86" y="1111.21" width="100" height="30" as="geometry" />
        </mxCell>
        <mxCell id="elaPlwufUbfxa7BBgDb5-247" value="EP05-02_law2" style="rounded=1;whiteSpace=wrap;html=1;shadow=0;comic=0;labelBackgroundColor=none;strokeWidth=1;fontFamily=Verdana;fontSize=12;align=center;arcSize=50;" vertex="1" parent="1">
          <mxGeometry x="1663.86" y="1161.21" width="100" height="30" as="geometry" />
        </mxCell>
        <mxCell id="elaPlwufUbfxa7BBgDb5-260" style="edgeStyle=orthogonalEdgeStyle;rounded=0;orthogonalLoop=1;jettySize=auto;html=1;exitX=1;exitY=0.5;exitDx=0;exitDy=0;fontFamily=Verdana;" edge="1" parent="1" target="elaPlwufUbfxa7BBgDb5-264">
          <mxGeometry relative="1" as="geometry">
            <mxPoint x="1596.75" y="1000.21" as="sourcePoint" />
          </mxGeometry>
        </mxCell>
        <mxCell id="elaPlwufUbfxa7BBgDb5-261" style="edgeStyle=orthogonalEdgeStyle;rounded=0;orthogonalLoop=1;jettySize=auto;html=1;exitX=0;exitY=0.5;exitDx=0;exitDy=0;entryX=0;entryY=0.5;entryDx=0;entryDy=0;fontFamily=Verdana;" edge="1" parent="1" source="elaPlwufUbfxa7BBgDb5-264" target="elaPlwufUbfxa7BBgDb5-270">
          <mxGeometry relative="1" as="geometry">
            <Array as="points">
              <mxPoint x="1859.25" y="1070.21" />
              <mxPoint x="1859.25" y="1125.21" />
            </Array>
          </mxGeometry>
        </mxCell>
        <mxCell id="elaPlwufUbfxa7BBgDb5-262" style="edgeStyle=orthogonalEdgeStyle;rounded=0;orthogonalLoop=1;jettySize=auto;html=1;exitX=0;exitY=0.5;exitDx=0;exitDy=0;entryX=0;entryY=0.5;entryDx=0;entryDy=0;fontFamily=Verdana;" edge="1" parent="1" source="elaPlwufUbfxa7BBgDb5-264" target="elaPlwufUbfxa7BBgDb5-268">
          <mxGeometry relative="1" as="geometry">
            <Array as="points">
              <mxPoint x="1859.25" y="1070.21" />
              <mxPoint x="1859.25" y="1175.21" />
            </Array>
          </mxGeometry>
        </mxCell>
        <mxCell id="elaPlwufUbfxa7BBgDb5-263" style="edgeStyle=orthogonalEdgeStyle;rounded=0;orthogonalLoop=1;jettySize=auto;html=1;exitX=0;exitY=0.5;exitDx=0;exitDy=0;entryX=0;entryY=0.5;entryDx=0;entryDy=0;fontFamily=Verdana;" edge="1" parent="1" source="elaPlwufUbfxa7BBgDb5-264" target="elaPlwufUbfxa7BBgDb5-266">
          <mxGeometry relative="1" as="geometry">
            <Array as="points">
              <mxPoint x="1859.25" y="1070.21" />
              <mxPoint x="1859.25" y="1225.21" />
            </Array>
          </mxGeometry>
        </mxCell>
        <mxCell id="elaPlwufUbfxa7BBgDb5-264" value="典狱长" style="shape=parallelogram;perimeter=parallelogramPerimeter;whiteSpace=wrap;html=1;fixedSize=1;rounded=0;shadow=0;comic=0;strokeWidth=1;fontFamily=Verdana;" vertex="1" parent="1">
          <mxGeometry x="1869.25" y="1050.21" width="120" height="40" as="geometry" />
        </mxCell>
        <mxCell id="elaPlwufUbfxa7BBgDb5-265" style="edgeStyle=orthogonalEdgeStyle;rounded=0;orthogonalLoop=1;jettySize=auto;html=1;exitX=1;exitY=0.5;exitDx=0;exitDy=0;entryX=1;entryY=0;entryDx=0;entryDy=0;fontFamily=Verdana;" edge="1" parent="1" source="elaPlwufUbfxa7BBgDb5-266">
          <mxGeometry relative="1" as="geometry">
            <mxPoint x="1570.9951869582774" y="986.0389734849855" as="targetPoint" />
            <Array as="points">
              <mxPoint x="1999.25" y="1225.21" />
              <mxPoint x="1999.25" y="986.21" />
            </Array>
          </mxGeometry>
        </mxCell>
        <mxCell id="elaPlwufUbfxa7BBgDb5-266" value="EP05-02_justice3" style="rounded=1;whiteSpace=wrap;html=1;shadow=0;comic=0;labelBackgroundColor=none;strokeWidth=1;fontFamily=Verdana;fontSize=12;align=center;arcSize=50;" vertex="1" parent="1">
          <mxGeometry x="1879.25" y="1210.21" width="100" height="30" as="geometry" />
        </mxCell>
        <mxCell id="elaPlwufUbfxa7BBgDb5-267" style="edgeStyle=orthogonalEdgeStyle;rounded=0;orthogonalLoop=1;jettySize=auto;html=1;exitX=1;exitY=0.5;exitDx=0;exitDy=0;fontFamily=Verdana;entryX=1;entryY=0;entryDx=0;entryDy=0;" edge="1" parent="1" source="elaPlwufUbfxa7BBgDb5-268">
          <mxGeometry relative="1" as="geometry">
            <mxPoint x="1570.9951869582774" y="986.0389734849855" as="targetPoint" />
            <Array as="points">
              <mxPoint x="1999.25" y="1175.21" />
              <mxPoint x="1999.25" y="986.21" />
            </Array>
          </mxGeometry>
        </mxCell>
        <mxCell id="elaPlwufUbfxa7BBgDb5-268" value="EP05-02_justice2" style="rounded=1;whiteSpace=wrap;html=1;shadow=0;comic=0;labelBackgroundColor=none;strokeWidth=1;fontFamily=Verdana;fontSize=12;align=center;arcSize=50;" vertex="1" parent="1">
          <mxGeometry x="1879.25" y="1160.21" width="100" height="30" as="geometry" />
        </mxCell>
        <mxCell id="elaPlwufUbfxa7BBgDb5-269" style="edgeStyle=orthogonalEdgeStyle;rounded=0;orthogonalLoop=1;jettySize=auto;html=1;exitX=1;exitY=0.5;exitDx=0;exitDy=0;entryX=1;entryY=0;entryDx=0;entryDy=0;fontFamily=Verdana;" edge="1" parent="1" source="elaPlwufUbfxa7BBgDb5-270">
          <mxGeometry relative="1" as="geometry">
            <mxPoint x="1570.9951869582774" y="986.0389734849855" as="targetPoint" />
            <Array as="points">
              <mxPoint x="1999.25" y="1125.21" />
              <mxPoint x="1999.25" y="986.21" />
            </Array>
          </mxGeometry>
        </mxCell>
        <mxCell id="elaPlwufUbfxa7BBgDb5-270" value="EP05-02_justice1" style="rounded=1;whiteSpace=wrap;html=1;shadow=0;comic=0;labelBackgroundColor=none;strokeWidth=1;fontFamily=Verdana;fontSize=12;align=center;arcSize=50;" vertex="1" parent="1">
          <mxGeometry x="1879.25" y="1110.21" width="100" height="30" as="geometry" />
        </mxCell>
        <mxCell id="elaPlwufUbfxa7BBgDb5-276" value="" style="edgeStyle=orthogonalEdgeStyle;rounded=0;orthogonalLoop=1;jettySize=auto;html=1;fontFamily=Verdana;" edge="1" parent="1" source="elaPlwufUbfxa7BBgDb5-271" target="elaPlwufUbfxa7BBgDb5-275">
          <mxGeometry relative="1" as="geometry" />
        </mxCell>
        <mxCell id="elaPlwufUbfxa7BBgDb5-271" value="EP05-02_1" style="rounded=1;whiteSpace=wrap;html=1;shadow=0;comic=0;labelBackgroundColor=none;strokeWidth=1;fontFamily=Verdana;fontSize=12;align=center;arcSize=50;" vertex="1" parent="1">
          <mxGeometry x="1460" y="1270" width="100" height="30" as="geometry" />
        </mxCell>
        <mxCell id="elaPlwufUbfxa7BBgDb5-278" value="" style="edgeStyle=orthogonalEdgeStyle;rounded=0;orthogonalLoop=1;jettySize=auto;html=1;fontFamily=Verdana;entryX=0;entryY=0.5;entryDx=0;entryDy=0;" edge="1" parent="1" source="elaPlwufUbfxa7BBgDb5-275" target="elaPlwufUbfxa7BBgDb5-310">
          <mxGeometry relative="1" as="geometry">
            <Array as="points">
              <mxPoint x="1510" y="1370" />
            </Array>
          </mxGeometry>
        </mxCell>
        <mxCell id="elaPlwufUbfxa7BBgDb5-275" value="离开典狱长房间" style="shape=parallelogram;perimeter=parallelogramPerimeter;whiteSpace=wrap;html=1;fixedSize=1;rounded=0;shadow=0;comic=0;strokeWidth=1;fontFamily=Verdana;" vertex="1" parent="1">
          <mxGeometry x="1450" y="1320" width="120" height="40" as="geometry" />
        </mxCell>
        <mxCell id="elaPlwufUbfxa7BBgDb5-281" value="" style="edgeStyle=orthogonalEdgeStyle;rounded=0;orthogonalLoop=1;jettySize=auto;html=1;fontFamily=Verdana;entryX=0.5;entryY=0;entryDx=0;entryDy=0;" edge="1" parent="1" source="elaPlwufUbfxa7BBgDb5-277" target="elaPlwufUbfxa7BBgDb5-305">
          <mxGeometry relative="1" as="geometry" />
        </mxCell>
        <mxCell id="elaPlwufUbfxa7BBgDb5-277" value="进入艾琳的客房" style="shape=parallelogram;perimeter=parallelogramPerimeter;whiteSpace=wrap;html=1;fixedSize=1;rounded=0;shadow=0;comic=0;strokeWidth=1;fontFamily=Verdana;" vertex="1" parent="1">
          <mxGeometry x="2550" y="1380" width="120" height="40" as="geometry" />
        </mxCell>
        <mxCell id="elaPlwufUbfxa7BBgDb5-315" value="" style="edgeStyle=orthogonalEdgeStyle;rounded=0;orthogonalLoop=1;jettySize=auto;html=1;fontFamily=Verdana;" edge="1" parent="1" source="elaPlwufUbfxa7BBgDb5-280" target="elaPlwufUbfxa7BBgDb5-314">
          <mxGeometry relative="1" as="geometry">
            <Array as="points">
              <mxPoint x="2610" y="1660" />
            </Array>
          </mxGeometry>
        </mxCell>
        <mxCell id="elaPlwufUbfxa7BBgDb5-280" value="EP05-03_0" style="rounded=1;whiteSpace=wrap;html=1;shadow=0;comic=0;labelBackgroundColor=none;strokeWidth=1;fontFamily=Verdana;fontSize=12;align=center;arcSize=50;" vertex="1" parent="1">
          <mxGeometry x="2560" y="1580" width="100" height="30" as="geometry" />
        </mxCell>
        <mxCell id="elaPlwufUbfxa7BBgDb5-283" value="" style="edgeStyle=orthogonalEdgeStyle;rounded=0;orthogonalLoop=1;jettySize=auto;html=1;fontFamily=Verdana;" edge="1" parent="1" source="elaPlwufUbfxa7BBgDb5-282" target="elaPlwufUbfxa7BBgDb5-277">
          <mxGeometry relative="1" as="geometry" />
        </mxCell>
        <mxCell id="elaPlwufUbfxa7BBgDb5-282" value="&lt;font color=&quot;#262626&quot;&gt;&lt;span style=&quot;font-size: 14px ; letter-spacing: 0.733333px&quot;&gt;艾琳的客房门前&lt;/span&gt;&lt;/font&gt;" style="shape=card;whiteSpace=wrap;html=1;size=20;fillColor=#d5e8d4;strokeColor=#82b366;" vertex="1" parent="1">
          <mxGeometry x="2730" y="1380" width="120" height="40" as="geometry" />
        </mxCell>
        <mxCell id="elaPlwufUbfxa7BBgDb5-285" value="" style="edgeStyle=orthogonalEdgeStyle;rounded=0;orthogonalLoop=1;jettySize=auto;html=1;fontFamily=Verdana;" edge="1" parent="1" source="elaPlwufUbfxa7BBgDb5-284" target="elaPlwufUbfxa7BBgDb5-205">
          <mxGeometry relative="1" as="geometry">
            <Array as="points">
              <mxPoint x="1350" y="1050" />
              <mxPoint x="1350" y="1050" />
            </Array>
          </mxGeometry>
        </mxCell>
        <mxCell id="elaPlwufUbfxa7BBgDb5-284" value="&lt;span style=&quot;font-size: 10.5pt ; color: #262626 ; letter-spacing: 0.55pt&quot;&gt;薇拉&lt;/span&gt;" style="shape=card;whiteSpace=wrap;html=1;size=20;fillColor=#d5e8d4;strokeColor=#82b366;" vertex="1" parent="1">
          <mxGeometry x="1390" y="1030" width="70" height="40" as="geometry" />
        </mxCell>
        <mxCell id="elaPlwufUbfxa7BBgDb5-287" value="" style="edgeStyle=orthogonalEdgeStyle;rounded=0;orthogonalLoop=1;jettySize=auto;html=1;fontFamily=Verdana;" edge="1" parent="1" source="elaPlwufUbfxa7BBgDb5-286" target="elaPlwufUbfxa7BBgDb5-14">
          <mxGeometry relative="1" as="geometry" />
        </mxCell>
        <mxCell id="elaPlwufUbfxa7BBgDb5-286" value="&lt;span style=&quot;font-size: 10.5pt ; color: #262626 ; letter-spacing: 0.55pt&quot;&gt;医生门前&lt;/span&gt;" style="shape=card;whiteSpace=wrap;html=1;size=20;fillColor=#d5e8d4;strokeColor=#82b366;" vertex="1" parent="1">
          <mxGeometry x="230" y="290" width="100" height="40" as="geometry" />
        </mxCell>
        <mxCell id="elaPlwufUbfxa7BBgDb5-289" value="" style="edgeStyle=orthogonalEdgeStyle;rounded=0;orthogonalLoop=1;jettySize=auto;html=1;fontFamily=Verdana;" edge="1" parent="1" source="elaPlwufUbfxa7BBgDb5-288" target="elaPlwufUbfxa7BBgDb5-48">
          <mxGeometry relative="1" as="geometry" />
        </mxCell>
        <mxCell id="elaPlwufUbfxa7BBgDb5-288" value="&lt;span style=&quot;font-size: 10.5pt ; color: #262626 ; letter-spacing: 0.55pt&quot;&gt;典狱长房间门前&lt;/span&gt;" style="shape=card;whiteSpace=wrap;html=1;size=20;fillColor=#d5e8d4;strokeColor=#82b366;" vertex="1" parent="1">
          <mxGeometry x="1620" y="460" width="130" height="40" as="geometry" />
        </mxCell>
        <mxCell id="elaPlwufUbfxa7BBgDb5-291" value="" style="edgeStyle=orthogonalEdgeStyle;rounded=0;orthogonalLoop=1;jettySize=auto;html=1;fontFamily=Verdana;" edge="1" parent="1" source="elaPlwufUbfxa7BBgDb5-290" target="elaPlwufUbfxa7BBgDb5-81">
          <mxGeometry relative="1" as="geometry">
            <Array as="points">
              <mxPoint x="1360" y="690" />
              <mxPoint x="1360" y="690" />
            </Array>
          </mxGeometry>
        </mxCell>
        <mxCell id="elaPlwufUbfxa7BBgDb5-290" value="&lt;span style=&quot;font-size: 10.5pt ; color: #262626 ; letter-spacing: 0.55pt&quot;&gt;衣架&lt;/span&gt;" style="shape=card;whiteSpace=wrap;html=1;size=20;fillColor=#d5e8d4;strokeColor=#82b366;" vertex="1" parent="1">
          <mxGeometry x="1380" y="670" width="70" height="40" as="geometry" />
        </mxCell>
        <mxCell id="elaPlwufUbfxa7BBgDb5-293" value="" style="edgeStyle=orthogonalEdgeStyle;rounded=0;orthogonalLoop=1;jettySize=auto;html=1;fontFamily=Verdana;" edge="1" parent="1" source="elaPlwufUbfxa7BBgDb5-292" target="elaPlwufUbfxa7BBgDb5-224">
          <mxGeometry relative="1" as="geometry" />
        </mxCell>
        <mxCell id="elaPlwufUbfxa7BBgDb5-292" value="&lt;span style=&quot;font-size: 10.5pt ; color: #262626 ; letter-spacing: 0.55pt&quot;&gt;电话&lt;/span&gt;" style="shape=card;whiteSpace=wrap;html=1;size=20;fillColor=#d5e8d4;strokeColor=#82b366;" vertex="1" parent="1">
          <mxGeometry x="1570" y="690" width="70" height="40" as="geometry" />
        </mxCell>
        <mxCell id="elaPlwufUbfxa7BBgDb5-297" style="edgeStyle=orthogonalEdgeStyle;rounded=0;orthogonalLoop=1;jettySize=auto;html=1;exitX=1;exitY=0.5;exitDx=0;exitDy=0;exitPerimeter=0;entryX=0.25;entryY=0;entryDx=0;entryDy=0;fontFamily=Verdana;" edge="1" parent="1" source="elaPlwufUbfxa7BBgDb5-294" target="elaPlwufUbfxa7BBgDb5-83">
          <mxGeometry relative="1" as="geometry" />
        </mxCell>
        <mxCell id="elaPlwufUbfxa7BBgDb5-294" value="&lt;span style=&quot;font-size: 10.5pt ; color: #262626 ; letter-spacing: 0.55pt&quot;&gt;猎枪&lt;/span&gt;" style="shape=card;whiteSpace=wrap;html=1;size=20;fillColor=#d5e8d4;strokeColor=#82b366;" vertex="1" parent="1">
          <mxGeometry x="1800" y="660" width="70" height="40" as="geometry" />
        </mxCell>
        <mxCell id="elaPlwufUbfxa7BBgDb5-299" value="" style="edgeStyle=orthogonalEdgeStyle;rounded=0;orthogonalLoop=1;jettySize=auto;html=1;fontFamily=Verdana;entryX=0;entryY=0.5;entryDx=0;entryDy=0;" edge="1" parent="1" source="elaPlwufUbfxa7BBgDb5-298" target="elaPlwufUbfxa7BBgDb5-245">
          <mxGeometry relative="1" as="geometry" />
        </mxCell>
        <mxCell id="elaPlwufUbfxa7BBgDb5-298" value="&lt;span style=&quot;font-size: 10.5pt ; color: #262626 ; letter-spacing: 0.55pt&quot;&gt;记者&lt;/span&gt;" style="shape=card;whiteSpace=wrap;html=1;size=20;fillColor=#d5e8d4;strokeColor=#82b366;" vertex="1" parent="1">
          <mxGeometry x="1560" y="1051.21" width="70" height="40" as="geometry" />
        </mxCell>
        <mxCell id="elaPlwufUbfxa7BBgDb5-302" style="edgeStyle=orthogonalEdgeStyle;rounded=0;orthogonalLoop=1;jettySize=auto;html=1;exitX=1;exitY=0.5;exitDx=0;exitDy=0;exitPerimeter=0;entryX=0.25;entryY=0;entryDx=0;entryDy=0;fontFamily=Verdana;" edge="1" parent="1" source="elaPlwufUbfxa7BBgDb5-300" target="elaPlwufUbfxa7BBgDb5-264">
          <mxGeometry relative="1" as="geometry" />
        </mxCell>
        <mxCell id="elaPlwufUbfxa7BBgDb5-300" value="&lt;span style=&quot;font-size: 10.5pt ; color: #262626 ; letter-spacing: 0.55pt&quot;&gt;典狱长&lt;/span&gt;" style="shape=card;whiteSpace=wrap;html=1;size=20;fillColor=#d5e8d4;strokeColor=#82b366;" vertex="1" parent="1">
          <mxGeometry x="1799.25" y="1020" width="70" height="40" as="geometry" />
        </mxCell>
        <mxCell id="elaPlwufUbfxa7BBgDb5-304" value="" style="edgeStyle=orthogonalEdgeStyle;rounded=0;orthogonalLoop=1;jettySize=auto;html=1;fontFamily=Verdana;" edge="1" parent="1" source="elaPlwufUbfxa7BBgDb5-303" target="elaPlwufUbfxa7BBgDb5-275">
          <mxGeometry relative="1" as="geometry" />
        </mxCell>
        <mxCell id="elaPlwufUbfxa7BBgDb5-303" value="&lt;span style=&quot;font-size: 10.5pt ; color: #262626 ; letter-spacing: 0.55pt&quot;&gt;退出按钮&lt;/span&gt;" style="shape=card;whiteSpace=wrap;html=1;size=20;fillColor=#d5e8d4;strokeColor=#82b366;" vertex="1" parent="1">
          <mxGeometry x="1600" y="1320" width="80" height="40" as="geometry" />
        </mxCell>
        <mxCell id="elaPlwufUbfxa7BBgDb5-306" value="" style="edgeStyle=orthogonalEdgeStyle;rounded=0;orthogonalLoop=1;jettySize=auto;html=1;fontFamily=Verdana;" edge="1" parent="1" source="elaPlwufUbfxa7BBgDb5-305" target="elaPlwufUbfxa7BBgDb5-280">
          <mxGeometry relative="1" as="geometry" />
        </mxCell>
        <mxCell id="elaPlwufUbfxa7BBgDb5-305" value="2d场景：艾琳的客房" style="ellipse;whiteSpace=wrap;html=1;rounded=0;shadow=0;comic=0;strokeWidth=1;fontFamily=Verdana;" vertex="1" parent="1">
          <mxGeometry x="2550" y="1470" width="120" height="60" as="geometry" />
        </mxCell>
        <mxCell id="elaPlwufUbfxa7BBgDb5-309" style="edgeStyle=orthogonalEdgeStyle;rounded=0;orthogonalLoop=1;jettySize=auto;html=1;exitX=1;exitY=0.5;exitDx=0;exitDy=0;entryX=0.5;entryY=0;entryDx=0;entryDy=0;fontFamily=Verdana;" edge="1" parent="1" source="elaPlwufUbfxa7BBgDb5-307" target="elaPlwufUbfxa7BBgDb5-48">
          <mxGeometry relative="1" as="geometry" />
        </mxCell>
        <mxCell id="elaPlwufUbfxa7BBgDb5-307" value="3d场景：2楼走廊" style="ellipse;whiteSpace=wrap;html=1;aspect=fixed;rounded=0;shadow=0;comic=0;strokeWidth=1;fontFamily=Verdana;" vertex="1" parent="1">
          <mxGeometry x="1040" y="360" width="160" height="160" as="geometry" />
        </mxCell>
        <mxCell id="elaPlwufUbfxa7BBgDb5-311" style="edgeStyle=orthogonalEdgeStyle;rounded=0;orthogonalLoop=1;jettySize=auto;html=1;exitX=1;exitY=0.5;exitDx=0;exitDy=0;entryX=0.5;entryY=0;entryDx=0;entryDy=0;fontFamily=Verdana;" edge="1" parent="1" source="elaPlwufUbfxa7BBgDb5-310" target="elaPlwufUbfxa7BBgDb5-277">
          <mxGeometry relative="1" as="geometry">
            <Array as="points">
              <mxPoint x="2610" y="1370" />
            </Array>
          </mxGeometry>
        </mxCell>
        <mxCell id="elaPlwufUbfxa7BBgDb5-310" value="3d场景：2楼走廊" style="ellipse;whiteSpace=wrap;html=1;aspect=fixed;rounded=0;shadow=0;comic=0;strokeWidth=1;fontFamily=Verdana;" vertex="1" parent="1">
          <mxGeometry x="2310" y="1290" width="160" height="160" as="geometry" />
        </mxCell>
        <mxCell id="elaPlwufUbfxa7BBgDb5-317" value="" style="edgeStyle=orthogonalEdgeStyle;rounded=0;orthogonalLoop=1;jettySize=auto;html=1;fontFamily=Verdana;" edge="1" parent="1" source="elaPlwufUbfxa7BBgDb5-314" target="elaPlwufUbfxa7BBgDb5-316">
          <mxGeometry relative="1" as="geometry">
            <Array as="points">
              <mxPoint x="440" y="1660" />
            </Array>
          </mxGeometry>
        </mxCell>
        <mxCell id="elaPlwufUbfxa7BBgDb5-314" value="3d场景：2楼走廊" style="ellipse;whiteSpace=wrap;html=1;aspect=fixed;rounded=0;shadow=0;comic=0;strokeWidth=1;fontFamily=Verdana;" vertex="1" parent="1">
          <mxGeometry x="720" y="1580" width="160" height="160" as="geometry" />
        </mxCell>
        <mxCell id="elaPlwufUbfxa7BBgDb5-321" value="" style="edgeStyle=orthogonalEdgeStyle;rounded=0;orthogonalLoop=1;jettySize=auto;html=1;fontFamily=Verdana;" edge="1" parent="1" source="elaPlwufUbfxa7BBgDb5-316" target="elaPlwufUbfxa7BBgDb5-320">
          <mxGeometry relative="1" as="geometry" />
        </mxCell>
        <mxCell id="elaPlwufUbfxa7BBgDb5-316" value="东侧走廊自动触发" style="shape=parallelogram;perimeter=parallelogramPerimeter;whiteSpace=wrap;html=1;fixedSize=1;rounded=0;shadow=0;comic=0;strokeWidth=1;fontFamily=Verdana;" vertex="1" parent="1">
          <mxGeometry x="370" y="1724" width="140" height="36" as="geometry" />
        </mxCell>
        <mxCell id="elaPlwufUbfxa7BBgDb5-319" value="" style="edgeStyle=orthogonalEdgeStyle;rounded=0;orthogonalLoop=1;jettySize=auto;html=1;fontFamily=Verdana;" edge="1" parent="1" source="elaPlwufUbfxa7BBgDb5-318" target="elaPlwufUbfxa7BBgDb5-316">
          <mxGeometry relative="1" as="geometry" />
        </mxCell>
        <mxCell id="elaPlwufUbfxa7BBgDb5-318" value="&lt;span style=&quot;font-size: 10.5pt ; color: #262626 ; letter-spacing: 0.55pt&quot;&gt;东侧走廊窗户整块区域&lt;/span&gt;" style="shape=card;whiteSpace=wrap;html=1;size=20;fillColor=#d5e8d4;strokeColor=#82b366;" vertex="1" parent="1">
          <mxGeometry x="560" y="1722" width="160" height="40" as="geometry" />
        </mxCell>
        <mxCell id="elaPlwufUbfxa7BBgDb5-323" value="" style="edgeStyle=orthogonalEdgeStyle;rounded=0;orthogonalLoop=1;jettySize=auto;html=1;fontFamily=Verdana;" edge="1" parent="1" source="elaPlwufUbfxa7BBgDb5-320" target="elaPlwufUbfxa7BBgDb5-322">
          <mxGeometry relative="1" as="geometry" />
        </mxCell>
        <mxCell id="elaPlwufUbfxa7BBgDb5-320" value="EP05-04_0" style="rounded=1;whiteSpace=wrap;html=1;shadow=0;comic=0;labelBackgroundColor=none;strokeWidth=1;fontFamily=Verdana;fontSize=12;align=center;arcSize=50;" vertex="1" parent="1">
          <mxGeometry x="390" y="1790" width="100" height="30" as="geometry" />
        </mxCell>
        <mxCell id="elaPlwufUbfxa7BBgDb5-327" value="" style="edgeStyle=orthogonalEdgeStyle;rounded=0;orthogonalLoop=1;jettySize=auto;html=1;fontFamily=Verdana;" edge="1" parent="1" source="elaPlwufUbfxa7BBgDb5-322" target="elaPlwufUbfxa7BBgDb5-326">
          <mxGeometry relative="1" as="geometry" />
        </mxCell>
        <mxCell id="elaPlwufUbfxa7BBgDb5-322" value="记者的客房前" style="shape=parallelogram;perimeter=parallelogramPerimeter;whiteSpace=wrap;html=1;fixedSize=1;rounded=0;shadow=0;comic=0;strokeWidth=1;fontFamily=Verdana;" vertex="1" parent="1">
          <mxGeometry x="380" y="1850" width="120" height="30" as="geometry" />
        </mxCell>
        <mxCell id="elaPlwufUbfxa7BBgDb5-325" value="" style="edgeStyle=orthogonalEdgeStyle;rounded=0;orthogonalLoop=1;jettySize=auto;html=1;fontFamily=Verdana;" edge="1" parent="1" source="elaPlwufUbfxa7BBgDb5-324" target="elaPlwufUbfxa7BBgDb5-322">
          <mxGeometry relative="1" as="geometry" />
        </mxCell>
        <mxCell id="elaPlwufUbfxa7BBgDb5-324" value="&lt;span style=&quot;font-size: 10.5pt ; color: #262626 ; letter-spacing: 0.55pt&quot;&gt;记者的客房前&lt;/span&gt;" style="shape=card;whiteSpace=wrap;html=1;size=20;fillColor=#d5e8d4;strokeColor=#82b366;" vertex="1" parent="1">
          <mxGeometry x="550" y="1845" width="140" height="40" as="geometry" />
        </mxCell>
        <mxCell id="elaPlwufUbfxa7BBgDb5-333" value="" style="edgeStyle=orthogonalEdgeStyle;rounded=0;orthogonalLoop=1;jettySize=auto;html=1;fontFamily=Verdana;" edge="1" parent="1" source="elaPlwufUbfxa7BBgDb5-326" target="elaPlwufUbfxa7BBgDb5-332">
          <mxGeometry relative="1" as="geometry" />
        </mxCell>
        <mxCell id="elaPlwufUbfxa7BBgDb5-326" value="EP05-05_0" style="rounded=1;whiteSpace=wrap;html=1;shadow=0;comic=0;labelBackgroundColor=none;strokeWidth=1;fontFamily=Verdana;fontSize=12;align=center;arcSize=50;" vertex="1" parent="1">
          <mxGeometry x="390" y="1910" width="100" height="30" as="geometry" />
        </mxCell>
        <mxCell id="elaPlwufUbfxa7BBgDb5-331" value="" style="edgeStyle=orthogonalEdgeStyle;rounded=0;orthogonalLoop=1;jettySize=auto;html=1;fontFamily=Verdana;" edge="1" parent="1" source="elaPlwufUbfxa7BBgDb5-328">
          <mxGeometry relative="1" as="geometry">
            <mxPoint x="1510" y="580" as="targetPoint" />
          </mxGeometry>
        </mxCell>
        <mxCell id="elaPlwufUbfxa7BBgDb5-328" value="2d场景：典狱长房间" style="ellipse;whiteSpace=wrap;html=1;" vertex="1" parent="1">
          <mxGeometry x="1422.5" y="520" width="175" height="40" as="geometry" />
        </mxCell>
        <mxCell id="elaPlwufUbfxa7BBgDb5-337" value="" style="edgeStyle=orthogonalEdgeStyle;rounded=0;orthogonalLoop=1;jettySize=auto;html=1;fontFamily=Verdana;" edge="1" parent="1" source="elaPlwufUbfxa7BBgDb5-332" target="elaPlwufUbfxa7BBgDb5-336">
          <mxGeometry relative="1" as="geometry" />
        </mxCell>
        <mxCell id="elaPlwufUbfxa7BBgDb5-332" value="典狱长房间门前" style="shape=parallelogram;perimeter=parallelogramPerimeter;whiteSpace=wrap;html=1;fixedSize=1;" vertex="1" parent="1">
          <mxGeometry x="380" y="1970" width="120" height="40" as="geometry" />
        </mxCell>
        <mxCell id="elaPlwufUbfxa7BBgDb5-335" value="" style="edgeStyle=orthogonalEdgeStyle;rounded=0;orthogonalLoop=1;jettySize=auto;html=1;fontFamily=Verdana;" edge="1" parent="1" source="elaPlwufUbfxa7BBgDb5-334" target="elaPlwufUbfxa7BBgDb5-332">
          <mxGeometry relative="1" as="geometry" />
        </mxCell>
        <mxCell id="elaPlwufUbfxa7BBgDb5-334" value="&lt;span style=&quot;font-size: 10.5pt ; color: #262626 ; letter-spacing: 0.55pt&quot;&gt;典狱长房间门前&lt;/span&gt;" style="shape=card;whiteSpace=wrap;html=1;size=20;fillColor=#d5e8d4;strokeColor=#82b366;" vertex="1" parent="1">
          <mxGeometry x="550" y="1970" width="140" height="40" as="geometry" />
        </mxCell>
        <mxCell id="elaPlwufUbfxa7BBgDb5-339" value="" style="edgeStyle=orthogonalEdgeStyle;rounded=0;orthogonalLoop=1;jettySize=auto;html=1;fontFamily=Verdana;" edge="1" parent="1" source="elaPlwufUbfxa7BBgDb5-336" target="elaPlwufUbfxa7BBgDb5-338">
          <mxGeometry relative="1" as="geometry" />
        </mxCell>
        <mxCell id="elaPlwufUbfxa7BBgDb5-336" value="EP05-06_0" style="rounded=1;whiteSpace=wrap;html=1;shadow=0;comic=0;labelBackgroundColor=none;strokeWidth=1;fontFamily=Verdana;fontSize=12;align=center;arcSize=50;" vertex="1" parent="1">
          <mxGeometry x="390" y="2050" width="100" height="30" as="geometry" />
        </mxCell>
        <mxCell id="elaPlwufUbfxa7BBgDb5-345" value="" style="edgeStyle=orthogonalEdgeStyle;rounded=0;orthogonalLoop=1;jettySize=auto;html=1;fontFamily=Verdana;" edge="1" parent="1" source="elaPlwufUbfxa7BBgDb5-338" target="elaPlwufUbfxa7BBgDb5-340">
          <mxGeometry relative="1" as="geometry" />
        </mxCell>
        <mxCell id="elaPlwufUbfxa7BBgDb5-346" value="" style="edgeStyle=orthogonalEdgeStyle;rounded=0;orthogonalLoop=1;jettySize=auto;html=1;fontFamily=Verdana;" edge="1" parent="1" source="elaPlwufUbfxa7BBgDb5-338" target="elaPlwufUbfxa7BBgDb5-343">
          <mxGeometry relative="1" as="geometry" />
        </mxCell>
        <mxCell id="elaPlwufUbfxa7BBgDb5-347" value="" style="edgeStyle=orthogonalEdgeStyle;rounded=0;orthogonalLoop=1;jettySize=auto;html=1;fontFamily=Verdana;" edge="1" parent="1" source="elaPlwufUbfxa7BBgDb5-338" target="elaPlwufUbfxa7BBgDb5-344">
          <mxGeometry relative="1" as="geometry" />
        </mxCell>
        <mxCell id="elaPlwufUbfxa7BBgDb5-338" value="EP05-05_choicepanel1" style="rhombus;whiteSpace=wrap;html=1;rounded=0;shadow=0;comic=0;strokeWidth=1;fontFamily=Verdana;" vertex="1" parent="1">
          <mxGeometry x="345" y="2120" width="190" height="80" as="geometry" />
        </mxCell>
        <mxCell id="elaPlwufUbfxa7BBgDb5-351" style="edgeStyle=orthogonalEdgeStyle;rounded=0;orthogonalLoop=1;jettySize=auto;html=1;exitX=0.5;exitY=1;exitDx=0;exitDy=0;entryX=0;entryY=0.5;entryDx=0;entryDy=0;fontFamily=Verdana;" edge="1" parent="1" source="elaPlwufUbfxa7BBgDb5-340" target="elaPlwufUbfxa7BBgDb5-348">
          <mxGeometry relative="1" as="geometry" />
        </mxCell>
        <mxCell id="elaPlwufUbfxa7BBgDb5-340" value="EP05-06_choice1" style="rounded=1;whiteSpace=wrap;html=1;shadow=0;comic=0;labelBackgroundColor=none;strokeWidth=1;fontFamily=Verdana;fontSize=12;align=center;arcSize=50;" vertex="1" parent="1">
          <mxGeometry x="210" y="2145" width="100" height="30" as="geometry" />
        </mxCell>
        <mxCell id="elaPlwufUbfxa7BBgDb5-349" value="" style="edgeStyle=orthogonalEdgeStyle;rounded=0;orthogonalLoop=1;jettySize=auto;html=1;fontFamily=Verdana;" edge="1" parent="1" source="elaPlwufUbfxa7BBgDb5-343" target="elaPlwufUbfxa7BBgDb5-348">
          <mxGeometry relative="1" as="geometry" />
        </mxCell>
        <mxCell id="elaPlwufUbfxa7BBgDb5-343" value="EP05-06_choice2" style="rounded=1;whiteSpace=wrap;html=1;shadow=0;comic=0;labelBackgroundColor=none;strokeWidth=1;fontFamily=Verdana;fontSize=12;align=center;arcSize=50;" vertex="1" parent="1">
          <mxGeometry x="390" y="2250" width="100" height="30" as="geometry" />
        </mxCell>
        <mxCell id="elaPlwufUbfxa7BBgDb5-350" style="edgeStyle=orthogonalEdgeStyle;rounded=0;orthogonalLoop=1;jettySize=auto;html=1;exitX=0.5;exitY=1;exitDx=0;exitDy=0;entryX=1;entryY=0.5;entryDx=0;entryDy=0;fontFamily=Verdana;" edge="1" parent="1" source="elaPlwufUbfxa7BBgDb5-344" target="elaPlwufUbfxa7BBgDb5-348">
          <mxGeometry relative="1" as="geometry" />
        </mxCell>
        <mxCell id="elaPlwufUbfxa7BBgDb5-344" value="EP05-06_choice3" style="rounded=1;whiteSpace=wrap;html=1;shadow=0;comic=0;labelBackgroundColor=none;strokeWidth=1;fontFamily=Verdana;fontSize=12;align=center;arcSize=50;" vertex="1" parent="1">
          <mxGeometry x="570" y="2145" width="100" height="30" as="geometry" />
        </mxCell>
        <mxCell id="elaPlwufUbfxa7BBgDb5-353" value="" style="edgeStyle=orthogonalEdgeStyle;rounded=0;orthogonalLoop=1;jettySize=auto;html=1;fontFamily=Verdana;" edge="1" parent="1" source="elaPlwufUbfxa7BBgDb5-348" target="elaPlwufUbfxa7BBgDb5-352">
          <mxGeometry relative="1" as="geometry" />
        </mxCell>
        <mxCell id="elaPlwufUbfxa7BBgDb5-348" value="EP05-06_1" style="rounded=1;whiteSpace=wrap;html=1;shadow=0;comic=0;labelBackgroundColor=none;strokeWidth=1;fontFamily=Verdana;fontSize=12;align=center;arcSize=50;" vertex="1" parent="1">
          <mxGeometry x="390" y="2330" width="100" height="30" as="geometry" />
        </mxCell>
        <mxCell id="elaPlwufUbfxa7BBgDb5-357" value="" style="edgeStyle=orthogonalEdgeStyle;rounded=0;orthogonalLoop=1;jettySize=auto;html=1;fontFamily=Verdana;" edge="1" parent="1" source="elaPlwufUbfxa7BBgDb5-352" target="elaPlwufUbfxa7BBgDb5-356">
          <mxGeometry relative="1" as="geometry" />
        </mxCell>
        <mxCell id="elaPlwufUbfxa7BBgDb5-352" value="2楼楼梯前" style="shape=parallelogram;perimeter=parallelogramPerimeter;whiteSpace=wrap;html=1;fixedSize=1;rounded=0;shadow=0;comic=0;strokeWidth=1;fontFamily=Verdana;" vertex="1" parent="1">
          <mxGeometry x="380" y="2390" width="120" height="30" as="geometry" />
        </mxCell>
        <mxCell id="elaPlwufUbfxa7BBgDb5-355" value="" style="edgeStyle=orthogonalEdgeStyle;rounded=0;orthogonalLoop=1;jettySize=auto;html=1;fontFamily=Verdana;" edge="1" parent="1" source="elaPlwufUbfxa7BBgDb5-354" target="elaPlwufUbfxa7BBgDb5-352">
          <mxGeometry relative="1" as="geometry" />
        </mxCell>
        <mxCell id="elaPlwufUbfxa7BBgDb5-354" value="&lt;span style=&quot;font-size: 10.5pt ; color: #262626 ; letter-spacing: 0.55pt&quot;&gt;2楼楼梯口（可能需要空气墙）&lt;/span&gt;" style="shape=card;whiteSpace=wrap;html=1;size=20;fillColor=#d5e8d4;strokeColor=#82b366;" vertex="1" parent="1">
          <mxGeometry x="570" y="2385" width="210" height="40" as="geometry" />
        </mxCell>
        <mxCell id="elaPlwufUbfxa7BBgDb5-359" value="" style="edgeStyle=orthogonalEdgeStyle;rounded=0;orthogonalLoop=1;jettySize=auto;html=1;fontFamily=Verdana;entryX=0.5;entryY=0;entryDx=0;entryDy=0;" edge="1" parent="1" source="elaPlwufUbfxa7BBgDb5-356" target="elaPlwufUbfxa7BBgDb5-360">
          <mxGeometry relative="1" as="geometry" />
        </mxCell>
        <mxCell id="elaPlwufUbfxa7BBgDb5-356" value="EP05-06_2" style="rounded=1;whiteSpace=wrap;html=1;shadow=0;comic=0;labelBackgroundColor=none;strokeWidth=1;fontFamily=Verdana;fontSize=12;align=center;arcSize=50;" vertex="1" parent="1">
          <mxGeometry x="390" y="2450" width="100" height="30" as="geometry" />
        </mxCell>
        <mxCell id="elaPlwufUbfxa7BBgDb5-358" value="" style="shape=mxgraph.bpmn.shape;html=1;verticalLabelPosition=bottom;labelBackgroundColor=#ffffff;verticalAlign=top;align=center;perimeter=ellipsePerimeter;outlineConnect=0;outline=end;symbol=terminate;rounded=0;shadow=0;comic=0;strokeWidth=1;fontFamily=Verdana;" vertex="1" parent="1">
          <mxGeometry x="415" y="2690" width="50" height="50" as="geometry" />
        </mxCell>
        <mxCell id="elaPlwufUbfxa7BBgDb5-361" value="" style="edgeStyle=orthogonalEdgeStyle;rounded=0;orthogonalLoop=1;jettySize=auto;html=1;fontFamily=Verdana;" edge="1" parent="1" source="elaPlwufUbfxa7BBgDb5-360" target="elaPlwufUbfxa7BBgDb5-358">
          <mxGeometry relative="1" as="geometry" />
        </mxCell>
        <mxCell id="elaPlwufUbfxa7BBgDb5-360" value="离开3d场景：2楼走廊" style="shape=parallelogram;perimeter=parallelogramPerimeter;whiteSpace=wrap;html=1;fixedSize=1;rounded=0;shadow=0;comic=0;strokeWidth=1;fontFamily=Verdana;" vertex="1" parent="1">
          <mxGeometry x="365" y="2560" width="150" height="30" as="geometry" />
        </mxCell>
        <mxCell id="elaPlwufUbfxa7BBgDb5-363" style="edgeStyle=orthogonalEdgeStyle;rounded=0;orthogonalLoop=1;jettySize=auto;html=1;exitX=0;exitY=0;exitDx=60;exitDy=80;exitPerimeter=0;entryX=1;entryY=0.5;entryDx=0;entryDy=0;fontFamily=Verdana;" edge="1" parent="1" source="elaPlwufUbfxa7BBgDb5-362" target="elaPlwufUbfxa7BBgDb5-358">
          <mxGeometry relative="1" as="geometry">
            <Array as="points">
              <mxPoint x="640" y="2715" />
            </Array>
          </mxGeometry>
        </mxCell>
        <mxCell id="elaPlwufUbfxa7BBgDb5-362" value="进入下一个EP" style="shape=callout;whiteSpace=wrap;html=1;perimeter=calloutPerimeter;rounded=0;shadow=0;comic=0;strokeWidth=1;fontFamily=Verdana;" vertex="1" parent="1">
          <mxGeometry x="580" y="2630" width="120" height="80" as="geometry" />
        </mxCell>
      </root>
    </mxGraphModel>
  </diagram>
</mxfile>
